<?xml version="1.0" standalone="no"?>
<!DOCTYPE svg PUBLIC "-//W3C//DTD SVG 20010904//EN"
 "http://www.w3.org/TR/2001/REC-SVG-20010904/DTD/svg10.dtd">
<svg version="1.0" xmlns="http://www.w3.org/2000/svg"
 width="101.000000pt" height="129.000000pt" viewBox="0 0 101.000000 129.000000"
 preserveAspectRatio="xMidYMid meet">
<metadata>
Created by potrace 1.16, written by Peter Selinger 2001-2019
</metadata>
<g transform="translate(0.000000,129.000000) scale(0.100000,-0.100000)"
fill="#000000" stroke="none">
<path d="M0 645 l0 -645 505 0 505 0 0 645 0 645 -505 0 -505 0 0 -645z m880
559 c80 -32 102 -119 52 -209 -35 -64 -103 -101 -209 -110 l-73 -7 -10 -37
c-9 -33 -60 -295 -91 -465 l-12 -70 34 -29 c49 -42 164 -116 199 -129 25 -8
36 -6 66 11 65 39 88 22 51 -36 -49 -77 -95 -103 -178 -103 -62 0 -99 15 -206
86 l-85 57 -72 -17 c-92 -21 -199 -21 -236 0 -90 54 -85 216 10 309 34 33 47
39 94 43 46 4 63 0 102 -22 26 -15 50 -23 54 -19 4 5 26 104 49 222 l42 214
-30 31 c-35 37 -61 93 -61 136 0 36 15 38 70 10 53 -27 62 -26 84 14 24 45 72
91 121 115 51 26 176 28 235 5z"/>
<path d="M721 1124 c-29 -24 -54 -79 -44 -97 6 -10 121 2 146 15 27 14 21 53
-14 82 -38 32 -50 32 -88 0z"/>
<path d="M177 312 c-23 -25 -21 -75 3 -97 22 -20 71 -15 109 11 l23 16 -29 30
c-24 25 -72 58 -86 58 -2 0 -11 -8 -20 -18z"/>
</g>
</svg>
